<svg width="19" height="19" fill="none" xmlns="http://www.w3.org/2000/svg"><path d="M17.505 3.3l-.04-.04-2.14-1.88c-.3-.28-.72-.42-1.16-.38-.4.04-.76.2-1.04.48l-.06.06-2.12 2.66c-.56.6-.54 1.52.04 2.1.04.04.08.08.12.1l1.08.72c-.08.38-.64 1.46-2.62 3.44s-3.06 2.54-3.44 2.62l-.72-1.08a.53.53 0 00-.1-.12c-.58-.58-1.5-.58-2.1-.04l-2.66 2.12-.06.06c-.6.6-.64 1.6-.1 2.18l1.88 2.14.04.04c.36.36.92.5 1.54.5 1.1 0 2.36-.44 3.02-.7 1.28-.5 3.78-1.72 6.26-4.2 1.84-1.84 3.32-4.06 4.2-6.26.38-1 1.22-3.48.18-4.52zm-5.52 9.68c-3.7 3.7-7.86 4.72-8.56 4.36l-1.82-2.08 2.6-2.06.7 1.06c.02.02.02.04.04.06.24.3.58.46.98.48.38.02 1.56.08 4.74-3.1.78-.78 3.18-3.18 3.1-4.74-.02-.4-.2-.74-.48-.98-.02-.02-.04-.04-.06-.04l-1.06-.7 2.06-2.6 2.08 1.82c.4.66-.62 4.82-4.32 8.52z" fill="#F10048"/></svg>